<svg width="138" height="27" viewBox="0 0 138 27" fill="none" xmlns="http://www.w3.org/2000/svg">
<path fill-rule="evenodd" clip-rule="evenodd" d="M8.11493 0.933525H15.7462L12.2748 13.2147H13.1555L23.9813 0.896606L31.5892 0.894052L20.2524 13.7739L24.2173 26.6077H16.586L12.727 14.2516H11.9817L8.4883 26.6108H0.857056L8.11493 0.933576V0.933525ZM112.049 0.894455H138L136.995 5.21256H128.152L123.081 26.5717H115.449L120.521 5.21256H111.044L112.049 0.894455H112.049ZM92.6871 22.4414H103.627L102.43 26.605L83.9086 26.5936L91.001 0.88951L109.869 0.898151L108.589 5.31506H97.4192L95.4485 12.4474H106.54L105.299 16.7655H94.2553L92.6871 22.4414L92.6871 22.4414ZM83.4343 0.933533L76.2981 26.5709H68.6669L75.2147 3.04743H73.6138L60.645 26.6108L53.0135 26.6113L67.1466 0.887314C72.5245 0.887314 77.9619 0.933521 83.4343 0.933521L83.4343 0.933533ZM38.5843 22.378H49.524L48.2976 26.6103L29.7799 26.6095L36.8851 0.898884C43.1824 0.898884 49.2763 0.933521 55.727 0.933521L54.4864 5.25162H43.3165L41.3457 12.3839H52.4371L51.1964 16.7021H40.1526L38.5843 22.378L38.5843 22.378Z" fill="#275C3E"/>
</svg>
